<mxfile host="app.diagrams.net" modified="2021-10-05T00:33:25.997Z" agent="5.0 (Macintosh; Intel Mac OS X 10_15_7) AppleWebKit/537.36 (KHTML, like Gecko) Chrome/93.0.4577.82 Safari/537.36" etag="OItlpWTLosTdAwK3BmOT" version="15.4.1" type="github">
  <diagram id="C5RBs43oDa-KdzZeNtuy" name="Page-1">
    <mxGraphModel dx="1226" dy="726" grid="1" gridSize="10" guides="1" tooltips="1" connect="1" arrows="1" fold="1" page="1" pageScale="1" pageWidth="827" pageHeight="1169" math="0" shadow="0">
      <root>
        <mxCell id="WIyWlLk6GJQsqaUBKTNV-0" />
        <mxCell id="WIyWlLk6GJQsqaUBKTNV-1" parent="WIyWlLk6GJQsqaUBKTNV-0" />
        <mxCell id="WIyWlLk6GJQsqaUBKTNV-2" value="" style="rounded=0;html=1;jettySize=auto;orthogonalLoop=1;fontSize=11;endArrow=block;endFill=0;endSize=8;strokeWidth=1;shadow=0;labelBackgroundColor=none;edgeStyle=orthogonalEdgeStyle;" parent="WIyWlLk6GJQsqaUBKTNV-1" source="WIyWlLk6GJQsqaUBKTNV-3" target="WIyWlLk6GJQsqaUBKTNV-6" edge="1">
          <mxGeometry relative="1" as="geometry" />
        </mxCell>
        <mxCell id="WIyWlLk6GJQsqaUBKTNV-3" value="Start" style="rounded=1;whiteSpace=wrap;html=1;fontSize=12;glass=0;strokeWidth=1;shadow=0;" parent="WIyWlLk6GJQsqaUBKTNV-1" vertex="1">
          <mxGeometry x="320" y="10" width="120" height="40" as="geometry" />
        </mxCell>
        <mxCell id="WIyWlLk6GJQsqaUBKTNV-6" value="User Input" style="rhombus;whiteSpace=wrap;html=1;shadow=0;fontFamily=Helvetica;fontSize=12;align=center;strokeWidth=1;spacing=6;spacingTop=-4;fillColor=#e1d5e7;strokeColor=#9673a6;" parent="WIyWlLk6GJQsqaUBKTNV-1" vertex="1">
          <mxGeometry x="330" y="80" width="100" height="80" as="geometry" />
        </mxCell>
        <mxCell id="0QIRVl-zUDsyCPvj4wfi-6" style="edgeStyle=orthogonalEdgeStyle;rounded=0;orthogonalLoop=1;jettySize=auto;html=1;exitX=0.5;exitY=0;exitDx=0;exitDy=0;entryX=0;entryY=0.5;entryDx=0;entryDy=0;" edge="1" parent="WIyWlLk6GJQsqaUBKTNV-1" source="0QIRVl-zUDsyCPvj4wfi-3" target="WIyWlLk6GJQsqaUBKTNV-6">
          <mxGeometry relative="1" as="geometry" />
        </mxCell>
        <mxCell id="0QIRVl-zUDsyCPvj4wfi-13" style="edgeStyle=orthogonalEdgeStyle;rounded=0;orthogonalLoop=1;jettySize=auto;html=1;exitX=0.5;exitY=1;exitDx=0;exitDy=0;entryX=0.5;entryY=0;entryDx=0;entryDy=0;" edge="1" parent="WIyWlLk6GJQsqaUBKTNV-1" source="0QIRVl-zUDsyCPvj4wfi-3" target="0QIRVl-zUDsyCPvj4wfi-10">
          <mxGeometry relative="1" as="geometry" />
        </mxCell>
        <mxCell id="0QIRVl-zUDsyCPvj4wfi-3" value="Admin (Admin)" style="rounded=1;whiteSpace=wrap;html=1;fontSize=12;glass=0;strokeWidth=1;shadow=0;fillColor=#d5e8d4;strokeColor=#82b366;" vertex="1" parent="WIyWlLk6GJQsqaUBKTNV-1">
          <mxGeometry x="10" y="180" width="120" height="40" as="geometry" />
        </mxCell>
        <mxCell id="0QIRVl-zUDsyCPvj4wfi-7" style="edgeStyle=orthogonalEdgeStyle;rounded=0;orthogonalLoop=1;jettySize=auto;html=1;exitX=0.5;exitY=0;exitDx=0;exitDy=0;entryX=0.5;entryY=1;entryDx=0;entryDy=0;" edge="1" parent="WIyWlLk6GJQsqaUBKTNV-1" source="0QIRVl-zUDsyCPvj4wfi-4" target="WIyWlLk6GJQsqaUBKTNV-6">
          <mxGeometry relative="1" as="geometry" />
        </mxCell>
        <mxCell id="0QIRVl-zUDsyCPvj4wfi-61" style="edgeStyle=orthogonalEdgeStyle;rounded=0;orthogonalLoop=1;jettySize=auto;html=1;exitX=0.5;exitY=1;exitDx=0;exitDy=0;entryX=0.5;entryY=0;entryDx=0;entryDy=0;fontSize=10;" edge="1" parent="WIyWlLk6GJQsqaUBKTNV-1" source="0QIRVl-zUDsyCPvj4wfi-4" target="0QIRVl-zUDsyCPvj4wfi-59">
          <mxGeometry relative="1" as="geometry" />
        </mxCell>
        <mxCell id="0QIRVl-zUDsyCPvj4wfi-4" value="Student (Student)" style="rounded=1;whiteSpace=wrap;html=1;fontSize=12;glass=0;strokeWidth=1;shadow=0;fillColor=#d5e8d4;strokeColor=#82b366;" vertex="1" parent="WIyWlLk6GJQsqaUBKTNV-1">
          <mxGeometry x="320" y="180" width="120" height="40" as="geometry" />
        </mxCell>
        <mxCell id="0QIRVl-zUDsyCPvj4wfi-8" style="edgeStyle=orthogonalEdgeStyle;rounded=0;orthogonalLoop=1;jettySize=auto;html=1;exitX=0.5;exitY=0;exitDx=0;exitDy=0;entryX=1;entryY=0.5;entryDx=0;entryDy=0;" edge="1" parent="WIyWlLk6GJQsqaUBKTNV-1" source="0QIRVl-zUDsyCPvj4wfi-5" target="WIyWlLk6GJQsqaUBKTNV-6">
          <mxGeometry relative="1" as="geometry" />
        </mxCell>
        <mxCell id="0QIRVl-zUDsyCPvj4wfi-5" value="E (Exit)" style="rounded=1;whiteSpace=wrap;html=1;fontSize=12;glass=0;strokeWidth=1;shadow=0;fillColor=#d5e8d4;strokeColor=#82b366;" vertex="1" parent="WIyWlLk6GJQsqaUBKTNV-1">
          <mxGeometry x="690" y="180" width="120" height="40" as="geometry" />
        </mxCell>
        <mxCell id="0QIRVl-zUDsyCPvj4wfi-14" style="edgeStyle=orthogonalEdgeStyle;rounded=0;orthogonalLoop=1;jettySize=auto;html=1;exitX=0.5;exitY=1;exitDx=0;exitDy=0;entryX=0.5;entryY=0;entryDx=0;entryDy=0;" edge="1" parent="WIyWlLk6GJQsqaUBKTNV-1" source="0QIRVl-zUDsyCPvj4wfi-10" target="0QIRVl-zUDsyCPvj4wfi-11">
          <mxGeometry relative="1" as="geometry" />
        </mxCell>
        <mxCell id="0QIRVl-zUDsyCPvj4wfi-10" value="username&amp;nbsp;" style="whiteSpace=wrap;html=1;" vertex="1" parent="WIyWlLk6GJQsqaUBKTNV-1">
          <mxGeometry x="20" y="240" width="100" height="20" as="geometry" />
        </mxCell>
        <mxCell id="0QIRVl-zUDsyCPvj4wfi-17" style="edgeStyle=orthogonalEdgeStyle;rounded=0;orthogonalLoop=1;jettySize=auto;html=1;exitX=0.25;exitY=1;exitDx=0;exitDy=0;entryX=0.75;entryY=0;entryDx=0;entryDy=0;" edge="1" parent="WIyWlLk6GJQsqaUBKTNV-1" source="0QIRVl-zUDsyCPvj4wfi-11" target="0QIRVl-zUDsyCPvj4wfi-15">
          <mxGeometry relative="1" as="geometry" />
        </mxCell>
        <mxCell id="0QIRVl-zUDsyCPvj4wfi-18" style="edgeStyle=orthogonalEdgeStyle;rounded=0;orthogonalLoop=1;jettySize=auto;html=1;exitX=0.75;exitY=1;exitDx=0;exitDy=0;entryX=0.5;entryY=0;entryDx=0;entryDy=0;" edge="1" parent="WIyWlLk6GJQsqaUBKTNV-1" source="0QIRVl-zUDsyCPvj4wfi-11" target="0QIRVl-zUDsyCPvj4wfi-16">
          <mxGeometry relative="1" as="geometry" />
        </mxCell>
        <mxCell id="0QIRVl-zUDsyCPvj4wfi-11" value="password" style="whiteSpace=wrap;html=1;" vertex="1" parent="WIyWlLk6GJQsqaUBKTNV-1">
          <mxGeometry x="20" y="290" width="100" height="20" as="geometry" />
        </mxCell>
        <mxCell id="0QIRVl-zUDsyCPvj4wfi-29" style="edgeStyle=orthogonalEdgeStyle;rounded=0;orthogonalLoop=1;jettySize=auto;html=1;exitX=0.5;exitY=1;exitDx=0;exitDy=0;entryX=0.5;entryY=0;entryDx=0;entryDy=0;fontSize=10;" edge="1" parent="WIyWlLk6GJQsqaUBKTNV-1" source="0QIRVl-zUDsyCPvj4wfi-15" target="0QIRVl-zUDsyCPvj4wfi-22">
          <mxGeometry relative="1" as="geometry">
            <Array as="points">
              <mxPoint x="40" y="400" />
              <mxPoint x="130" y="400" />
            </Array>
          </mxGeometry>
        </mxCell>
        <mxCell id="0QIRVl-zUDsyCPvj4wfi-15" value="Pass" style="whiteSpace=wrap;html=1;" vertex="1" parent="WIyWlLk6GJQsqaUBKTNV-1">
          <mxGeometry x="20" y="340" width="40" height="40" as="geometry" />
        </mxCell>
        <mxCell id="0QIRVl-zUDsyCPvj4wfi-19" style="edgeStyle=orthogonalEdgeStyle;rounded=0;orthogonalLoop=1;jettySize=auto;html=1;exitX=1;exitY=0.5;exitDx=0;exitDy=0;entryX=1;entryY=0.5;entryDx=0;entryDy=0;" edge="1" parent="WIyWlLk6GJQsqaUBKTNV-1" source="0QIRVl-zUDsyCPvj4wfi-16" target="0QIRVl-zUDsyCPvj4wfi-10">
          <mxGeometry relative="1" as="geometry">
            <Array as="points">
              <mxPoint x="150" y="360" />
              <mxPoint x="150" y="255" />
            </Array>
          </mxGeometry>
        </mxCell>
        <mxCell id="0QIRVl-zUDsyCPvj4wfi-16" value="Fail" style="whiteSpace=wrap;html=1;" vertex="1" parent="WIyWlLk6GJQsqaUBKTNV-1">
          <mxGeometry x="80" y="340" width="40" height="40" as="geometry" />
        </mxCell>
        <mxCell id="0QIRVl-zUDsyCPvj4wfi-20" value="&lt;font style=&quot;font-size: 10px&quot;&gt;Error, retype input&lt;/font&gt;" style="text;html=1;resizable=0;autosize=1;align=center;verticalAlign=middle;points=[];fillColor=none;strokeColor=none;rounded=0;" vertex="1" parent="WIyWlLk6GJQsqaUBKTNV-1">
          <mxGeometry x="120" y="360" width="90" height="20" as="geometry" />
        </mxCell>
        <mxCell id="0QIRVl-zUDsyCPvj4wfi-27" style="edgeStyle=orthogonalEdgeStyle;rounded=0;orthogonalLoop=1;jettySize=auto;html=1;exitX=1;exitY=0.5;exitDx=0;exitDy=0;entryX=0.5;entryY=0;entryDx=0;entryDy=0;fontSize=10;" edge="1" parent="WIyWlLk6GJQsqaUBKTNV-1" source="0QIRVl-zUDsyCPvj4wfi-22" target="0QIRVl-zUDsyCPvj4wfi-26">
          <mxGeometry relative="1" as="geometry" />
        </mxCell>
        <mxCell id="0QIRVl-zUDsyCPvj4wfi-28" style="edgeStyle=orthogonalEdgeStyle;rounded=0;orthogonalLoop=1;jettySize=auto;html=1;exitX=0;exitY=0.5;exitDx=0;exitDy=0;entryX=0.5;entryY=0;entryDx=0;entryDy=0;fontSize=10;" edge="1" parent="WIyWlLk6GJQsqaUBKTNV-1" source="0QIRVl-zUDsyCPvj4wfi-22" target="0QIRVl-zUDsyCPvj4wfi-24">
          <mxGeometry relative="1" as="geometry" />
        </mxCell>
        <mxCell id="0QIRVl-zUDsyCPvj4wfi-22" value="Course Management" style="whiteSpace=wrap;html=1;fontSize=10;align=center;fillColor=#dae8fc;strokeColor=#6c8ebf;" vertex="1" parent="WIyWlLk6GJQsqaUBKTNV-1">
          <mxGeometry x="80" y="410" width="100" height="30" as="geometry" />
        </mxCell>
        <mxCell id="0QIRVl-zUDsyCPvj4wfi-36" style="edgeStyle=orthogonalEdgeStyle;rounded=0;orthogonalLoop=1;jettySize=auto;html=1;exitX=0;exitY=0.5;exitDx=0;exitDy=0;entryX=0;entryY=0.5;entryDx=0;entryDy=0;fontSize=10;" edge="1" parent="WIyWlLk6GJQsqaUBKTNV-1" source="0QIRVl-zUDsyCPvj4wfi-24" target="0QIRVl-zUDsyCPvj4wfi-30">
          <mxGeometry relative="1" as="geometry">
            <Array as="points">
              <mxPoint x="10" y="475" />
              <mxPoint x="10" y="525" />
            </Array>
          </mxGeometry>
        </mxCell>
        <mxCell id="0QIRVl-zUDsyCPvj4wfi-24" value="Mange Course" style="whiteSpace=wrap;html=1;fontSize=10;align=center;rounded=1;fillColor=#fff2cc;strokeColor=#000000;perimeterSpacing=1;glass=0;" vertex="1" parent="WIyWlLk6GJQsqaUBKTNV-1">
          <mxGeometry x="30" y="460" width="100" height="40" as="geometry" />
        </mxCell>
        <mxCell id="0QIRVl-zUDsyCPvj4wfi-51" style="edgeStyle=orthogonalEdgeStyle;rounded=0;orthogonalLoop=1;jettySize=auto;html=1;exitX=1;exitY=0.5;exitDx=0;exitDy=0;entryX=1;entryY=0.75;entryDx=0;entryDy=0;fontSize=10;" edge="1" parent="WIyWlLk6GJQsqaUBKTNV-1" source="0QIRVl-zUDsyCPvj4wfi-26" target="0QIRVl-zUDsyCPvj4wfi-42">
          <mxGeometry relative="1" as="geometry" />
        </mxCell>
        <mxCell id="0QIRVl-zUDsyCPvj4wfi-26" value="Report" style="whiteSpace=wrap;html=1;fontSize=10;align=center;rounded=1;fillColor=#fff2cc;strokeColor=#000000;" vertex="1" parent="WIyWlLk6GJQsqaUBKTNV-1">
          <mxGeometry x="140" y="460" width="100" height="40" as="geometry" />
        </mxCell>
        <mxCell id="0QIRVl-zUDsyCPvj4wfi-39" style="edgeStyle=orthogonalEdgeStyle;rounded=0;orthogonalLoop=1;jettySize=auto;html=1;exitX=0;exitY=0.25;exitDx=0;exitDy=0;entryX=0;entryY=0.75;entryDx=0;entryDy=0;fontSize=10;" edge="1" parent="WIyWlLk6GJQsqaUBKTNV-1" source="0QIRVl-zUDsyCPvj4wfi-30" target="0QIRVl-zUDsyCPvj4wfi-31">
          <mxGeometry relative="1" as="geometry" />
        </mxCell>
        <mxCell id="0QIRVl-zUDsyCPvj4wfi-30" value="1 Create Course" style="whiteSpace=wrap;html=1;fontSize=10;align=left;" vertex="1" parent="WIyWlLk6GJQsqaUBKTNV-1">
          <mxGeometry x="30" y="510" width="100" height="30" as="geometry" />
        </mxCell>
        <mxCell id="0QIRVl-zUDsyCPvj4wfi-38" style="edgeStyle=orthogonalEdgeStyle;rounded=0;orthogonalLoop=1;jettySize=auto;html=1;exitX=0;exitY=0.5;exitDx=0;exitDy=0;entryX=0;entryY=0.5;entryDx=0;entryDy=0;fontSize=10;" edge="1" parent="WIyWlLk6GJQsqaUBKTNV-1" source="0QIRVl-zUDsyCPvj4wfi-31" target="0QIRVl-zUDsyCPvj4wfi-32">
          <mxGeometry relative="1" as="geometry" />
        </mxCell>
        <mxCell id="0QIRVl-zUDsyCPvj4wfi-31" value="2 Delete Course" style="whiteSpace=wrap;html=1;fontSize=10;align=left;" vertex="1" parent="WIyWlLk6GJQsqaUBKTNV-1">
          <mxGeometry x="30" y="554.5" width="100" height="30" as="geometry" />
        </mxCell>
        <mxCell id="0QIRVl-zUDsyCPvj4wfi-40" style="edgeStyle=orthogonalEdgeStyle;rounded=0;orthogonalLoop=1;jettySize=auto;html=1;exitX=0;exitY=0.25;exitDx=0;exitDy=0;entryX=0;entryY=0.5;entryDx=0;entryDy=0;fontSize=10;" edge="1" parent="WIyWlLk6GJQsqaUBKTNV-1" source="0QIRVl-zUDsyCPvj4wfi-32" target="0QIRVl-zUDsyCPvj4wfi-33">
          <mxGeometry relative="1" as="geometry" />
        </mxCell>
        <mxCell id="0QIRVl-zUDsyCPvj4wfi-32" value="3 Edit Course" style="whiteSpace=wrap;html=1;fontSize=10;align=left;" vertex="1" parent="WIyWlLk6GJQsqaUBKTNV-1">
          <mxGeometry x="30" y="600" width="100" height="30" as="geometry" />
        </mxCell>
        <mxCell id="0QIRVl-zUDsyCPvj4wfi-41" style="edgeStyle=orthogonalEdgeStyle;rounded=0;orthogonalLoop=1;jettySize=auto;html=1;exitX=0;exitY=0.25;exitDx=0;exitDy=0;entryX=0;entryY=0.5;entryDx=0;entryDy=0;fontSize=10;" edge="1" parent="WIyWlLk6GJQsqaUBKTNV-1" source="0QIRVl-zUDsyCPvj4wfi-33" target="0QIRVl-zUDsyCPvj4wfi-35">
          <mxGeometry relative="1" as="geometry" />
        </mxCell>
        <mxCell id="0QIRVl-zUDsyCPvj4wfi-33" value="4 Display Info" style="whiteSpace=wrap;html=1;fontSize=10;align=left;" vertex="1" parent="WIyWlLk6GJQsqaUBKTNV-1">
          <mxGeometry x="30" y="650" width="100" height="30" as="geometry" />
        </mxCell>
        <mxCell id="0QIRVl-zUDsyCPvj4wfi-50" style="edgeStyle=orthogonalEdgeStyle;rounded=0;orthogonalLoop=1;jettySize=auto;html=1;exitX=0;exitY=0.25;exitDx=0;exitDy=0;entryX=0;entryY=0.75;entryDx=0;entryDy=0;fontSize=10;" edge="1" parent="WIyWlLk6GJQsqaUBKTNV-1" source="0QIRVl-zUDsyCPvj4wfi-35" target="0QIRVl-zUDsyCPvj4wfi-48">
          <mxGeometry relative="1" as="geometry" />
        </mxCell>
        <mxCell id="0QIRVl-zUDsyCPvj4wfi-35" value="5 Register Student" style="whiteSpace=wrap;html=1;fontSize=10;align=left;" vertex="1" parent="WIyWlLk6GJQsqaUBKTNV-1">
          <mxGeometry x="30" y="700" width="100" height="30" as="geometry" />
        </mxCell>
        <mxCell id="0QIRVl-zUDsyCPvj4wfi-53" style="edgeStyle=orthogonalEdgeStyle;rounded=0;orthogonalLoop=1;jettySize=auto;html=1;exitX=1;exitY=0.25;exitDx=0;exitDy=0;entryX=1;entryY=0.75;entryDx=0;entryDy=0;fontSize=10;" edge="1" parent="WIyWlLk6GJQsqaUBKTNV-1" source="0QIRVl-zUDsyCPvj4wfi-42" target="0QIRVl-zUDsyCPvj4wfi-43">
          <mxGeometry relative="1" as="geometry" />
        </mxCell>
        <mxCell id="0QIRVl-zUDsyCPvj4wfi-42" value="1 View All Course" style="whiteSpace=wrap;html=1;fontSize=10;align=left;" vertex="1" parent="WIyWlLk6GJQsqaUBKTNV-1">
          <mxGeometry x="140" y="510" width="100" height="30" as="geometry" />
        </mxCell>
        <mxCell id="0QIRVl-zUDsyCPvj4wfi-54" style="edgeStyle=orthogonalEdgeStyle;rounded=0;orthogonalLoop=1;jettySize=auto;html=1;exitX=1;exitY=0.25;exitDx=0;exitDy=0;entryX=1;entryY=0.75;entryDx=0;entryDy=0;fontSize=10;" edge="1" parent="WIyWlLk6GJQsqaUBKTNV-1" source="0QIRVl-zUDsyCPvj4wfi-43" target="0QIRVl-zUDsyCPvj4wfi-44">
          <mxGeometry relative="1" as="geometry" />
        </mxCell>
        <mxCell id="0QIRVl-zUDsyCPvj4wfi-43" value="2 View Full Course" style="whiteSpace=wrap;html=1;fontSize=10;align=left;" vertex="1" parent="WIyWlLk6GJQsqaUBKTNV-1">
          <mxGeometry x="140" y="555" width="100" height="30" as="geometry" />
        </mxCell>
        <mxCell id="0QIRVl-zUDsyCPvj4wfi-55" style="edgeStyle=orthogonalEdgeStyle;rounded=0;orthogonalLoop=1;jettySize=auto;html=1;exitX=1;exitY=0.25;exitDx=0;exitDy=0;entryX=1;entryY=0.75;entryDx=0;entryDy=0;fontSize=10;" edge="1" parent="WIyWlLk6GJQsqaUBKTNV-1" source="0QIRVl-zUDsyCPvj4wfi-44" target="0QIRVl-zUDsyCPvj4wfi-45">
          <mxGeometry relative="1" as="geometry" />
        </mxCell>
        <mxCell id="0QIRVl-zUDsyCPvj4wfi-44" value="3 Write To File" style="whiteSpace=wrap;html=1;fontSize=10;align=left;" vertex="1" parent="WIyWlLk6GJQsqaUBKTNV-1">
          <mxGeometry x="140" y="600" width="100" height="30" as="geometry" />
        </mxCell>
        <mxCell id="0QIRVl-zUDsyCPvj4wfi-56" style="edgeStyle=orthogonalEdgeStyle;rounded=0;orthogonalLoop=1;jettySize=auto;html=1;exitX=1;exitY=0.25;exitDx=0;exitDy=0;entryX=1;entryY=0.75;entryDx=0;entryDy=0;fontSize=10;" edge="1" parent="WIyWlLk6GJQsqaUBKTNV-1" source="0QIRVl-zUDsyCPvj4wfi-45" target="0QIRVl-zUDsyCPvj4wfi-46">
          <mxGeometry relative="1" as="geometry" />
        </mxCell>
        <mxCell id="0QIRVl-zUDsyCPvj4wfi-45" value="4 View Stu in Course" style="whiteSpace=wrap;html=1;fontSize=10;align=left;" vertex="1" parent="WIyWlLk6GJQsqaUBKTNV-1">
          <mxGeometry x="140" y="650" width="100" height="30" as="geometry" />
        </mxCell>
        <mxCell id="0QIRVl-zUDsyCPvj4wfi-57" style="edgeStyle=orthogonalEdgeStyle;rounded=0;orthogonalLoop=1;jettySize=auto;html=1;exitX=1;exitY=0.25;exitDx=0;exitDy=0;entryX=1;entryY=0.75;entryDx=0;entryDy=0;fontSize=10;" edge="1" parent="WIyWlLk6GJQsqaUBKTNV-1" source="0QIRVl-zUDsyCPvj4wfi-46" target="0QIRVl-zUDsyCPvj4wfi-47">
          <mxGeometry relative="1" as="geometry" />
        </mxCell>
        <mxCell id="0QIRVl-zUDsyCPvj4wfi-46" value="5 View Course of Stu" style="whiteSpace=wrap;html=1;fontSize=10;align=left;" vertex="1" parent="WIyWlLk6GJQsqaUBKTNV-1">
          <mxGeometry x="140" y="700" width="100" height="30" as="geometry" />
        </mxCell>
        <mxCell id="0QIRVl-zUDsyCPvj4wfi-58" style="edgeStyle=orthogonalEdgeStyle;rounded=0;orthogonalLoop=1;jettySize=auto;html=1;exitX=1;exitY=0.25;exitDx=0;exitDy=0;entryX=1;entryY=0.25;entryDx=0;entryDy=0;fontSize=10;" edge="1" parent="WIyWlLk6GJQsqaUBKTNV-1" source="0QIRVl-zUDsyCPvj4wfi-47" target="0QIRVl-zUDsyCPvj4wfi-49">
          <mxGeometry relative="1" as="geometry" />
        </mxCell>
        <mxCell id="0QIRVl-zUDsyCPvj4wfi-47" value="6 Sort Course" style="whiteSpace=wrap;html=1;fontSize=10;align=left;" vertex="1" parent="WIyWlLk6GJQsqaUBKTNV-1">
          <mxGeometry x="140" y="740" width="100" height="30" as="geometry" />
        </mxCell>
        <mxCell id="0QIRVl-zUDsyCPvj4wfi-88" style="edgeStyle=orthogonalEdgeStyle;rounded=0;orthogonalLoop=1;jettySize=auto;html=1;exitX=0.5;exitY=1;exitDx=0;exitDy=0;entryX=0.5;entryY=1;entryDx=0;entryDy=0;fontSize=10;" edge="1" parent="WIyWlLk6GJQsqaUBKTNV-1" source="0QIRVl-zUDsyCPvj4wfi-48" target="0QIRVl-zUDsyCPvj4wfi-49">
          <mxGeometry relative="1" as="geometry" />
        </mxCell>
        <mxCell id="0QIRVl-zUDsyCPvj4wfi-48" value="7 Exit" style="whiteSpace=wrap;html=1;fontSize=10;align=left;" vertex="1" parent="WIyWlLk6GJQsqaUBKTNV-1">
          <mxGeometry x="30" y="750" width="100" height="30" as="geometry" />
        </mxCell>
        <mxCell id="0QIRVl-zUDsyCPvj4wfi-89" style="edgeStyle=orthogonalEdgeStyle;rounded=0;orthogonalLoop=1;jettySize=auto;html=1;exitX=0.25;exitY=1;exitDx=0;exitDy=0;entryX=0.5;entryY=1;entryDx=0;entryDy=0;fontSize=10;" edge="1" parent="WIyWlLk6GJQsqaUBKTNV-1" source="0QIRVl-zUDsyCPvj4wfi-49" target="0QIRVl-zUDsyCPvj4wfi-81">
          <mxGeometry relative="1" as="geometry" />
        </mxCell>
        <mxCell id="0QIRVl-zUDsyCPvj4wfi-49" value="7 Exit" style="whiteSpace=wrap;html=1;fontSize=10;align=left;" vertex="1" parent="WIyWlLk6GJQsqaUBKTNV-1">
          <mxGeometry x="140" y="790" width="100" height="30" as="geometry" />
        </mxCell>
        <mxCell id="0QIRVl-zUDsyCPvj4wfi-62" style="edgeStyle=orthogonalEdgeStyle;rounded=0;orthogonalLoop=1;jettySize=auto;html=1;exitX=0.5;exitY=1;exitDx=0;exitDy=0;entryX=0.5;entryY=0;entryDx=0;entryDy=0;fontSize=10;" edge="1" parent="WIyWlLk6GJQsqaUBKTNV-1" source="0QIRVl-zUDsyCPvj4wfi-59" target="0QIRVl-zUDsyCPvj4wfi-60">
          <mxGeometry relative="1" as="geometry" />
        </mxCell>
        <mxCell id="0QIRVl-zUDsyCPvj4wfi-59" value="username" style="whiteSpace=wrap;html=1;" vertex="1" parent="WIyWlLk6GJQsqaUBKTNV-1">
          <mxGeometry x="330" y="240" width="100" height="20" as="geometry" />
        </mxCell>
        <mxCell id="0QIRVl-zUDsyCPvj4wfi-64" style="edgeStyle=orthogonalEdgeStyle;rounded=0;orthogonalLoop=1;jettySize=auto;html=1;exitX=0.5;exitY=1;exitDx=0;exitDy=0;entryX=0.5;entryY=0;entryDx=0;entryDy=0;fontSize=10;" edge="1" parent="WIyWlLk6GJQsqaUBKTNV-1" source="0QIRVl-zUDsyCPvj4wfi-60" target="0QIRVl-zUDsyCPvj4wfi-63">
          <mxGeometry relative="1" as="geometry" />
        </mxCell>
        <mxCell id="0QIRVl-zUDsyCPvj4wfi-72" style="edgeStyle=orthogonalEdgeStyle;rounded=0;orthogonalLoop=1;jettySize=auto;html=1;exitX=0.25;exitY=1;exitDx=0;exitDy=0;entryX=0.632;entryY=-0.018;entryDx=0;entryDy=0;entryPerimeter=0;fontSize=10;" edge="1" parent="WIyWlLk6GJQsqaUBKTNV-1" source="0QIRVl-zUDsyCPvj4wfi-60" target="0QIRVl-zUDsyCPvj4wfi-70">
          <mxGeometry relative="1" as="geometry" />
        </mxCell>
        <mxCell id="0QIRVl-zUDsyCPvj4wfi-60" value="password" style="whiteSpace=wrap;html=1;" vertex="1" parent="WIyWlLk6GJQsqaUBKTNV-1">
          <mxGeometry x="330" y="290" width="100" height="20" as="geometry" />
        </mxCell>
        <mxCell id="0QIRVl-zUDsyCPvj4wfi-71" style="edgeStyle=orthogonalEdgeStyle;rounded=0;orthogonalLoop=1;jettySize=auto;html=1;exitX=0.5;exitY=1;exitDx=0;exitDy=0;entryX=0.701;entryY=-0.1;entryDx=0;entryDy=0;entryPerimeter=0;fontSize=10;" edge="1" parent="WIyWlLk6GJQsqaUBKTNV-1" source="0QIRVl-zUDsyCPvj4wfi-63" target="0QIRVl-zUDsyCPvj4wfi-66">
          <mxGeometry relative="1" as="geometry" />
        </mxCell>
        <mxCell id="0QIRVl-zUDsyCPvj4wfi-63" value="Null" style="whiteSpace=wrap;html=1;" vertex="1" parent="WIyWlLk6GJQsqaUBKTNV-1">
          <mxGeometry x="390" y="330" width="40" height="40" as="geometry" />
        </mxCell>
        <mxCell id="0QIRVl-zUDsyCPvj4wfi-68" style="edgeStyle=orthogonalEdgeStyle;rounded=0;orthogonalLoop=1;jettySize=auto;html=1;exitX=1;exitY=0.5;exitDx=0;exitDy=0;entryX=1;entryY=0.5;entryDx=0;entryDy=0;fontSize=10;" edge="1" parent="WIyWlLk6GJQsqaUBKTNV-1" source="0QIRVl-zUDsyCPvj4wfi-66" target="0QIRVl-zUDsyCPvj4wfi-59">
          <mxGeometry relative="1" as="geometry" />
        </mxCell>
        <mxCell id="0QIRVl-zUDsyCPvj4wfi-66" value="Create Password and Username" style="whiteSpace=wrap;html=1;fontSize=10;align=left;" vertex="1" parent="WIyWlLk6GJQsqaUBKTNV-1">
          <mxGeometry x="305" y="390" width="150" height="30" as="geometry" />
        </mxCell>
        <mxCell id="0QIRVl-zUDsyCPvj4wfi-75" style="edgeStyle=orthogonalEdgeStyle;rounded=0;orthogonalLoop=1;jettySize=auto;html=1;exitX=0;exitY=0.5;exitDx=0;exitDy=0;entryX=0;entryY=0.5;entryDx=0;entryDy=0;fontSize=10;" edge="1" parent="WIyWlLk6GJQsqaUBKTNV-1" source="0QIRVl-zUDsyCPvj4wfi-70" target="0QIRVl-zUDsyCPvj4wfi-74">
          <mxGeometry relative="1" as="geometry">
            <Array as="points">
              <mxPoint x="280" y="350" />
              <mxPoint x="280" y="455" />
            </Array>
          </mxGeometry>
        </mxCell>
        <mxCell id="0QIRVl-zUDsyCPvj4wfi-70" value="Exist" style="whiteSpace=wrap;html=1;" vertex="1" parent="WIyWlLk6GJQsqaUBKTNV-1">
          <mxGeometry x="330" y="330" width="40" height="40" as="geometry" />
        </mxCell>
        <mxCell id="0QIRVl-zUDsyCPvj4wfi-82" style="edgeStyle=orthogonalEdgeStyle;rounded=0;orthogonalLoop=1;jettySize=auto;html=1;exitX=0.5;exitY=1;exitDx=0;exitDy=0;entryX=0.5;entryY=0;entryDx=0;entryDy=0;fontSize=10;" edge="1" parent="WIyWlLk6GJQsqaUBKTNV-1" source="0QIRVl-zUDsyCPvj4wfi-74" target="0QIRVl-zUDsyCPvj4wfi-76">
          <mxGeometry relative="1" as="geometry" />
        </mxCell>
        <mxCell id="0QIRVl-zUDsyCPvj4wfi-74" value="Course Management" style="whiteSpace=wrap;html=1;fontSize=10;align=center;fillColor=#dae8fc;strokeColor=#6c8ebf;" vertex="1" parent="WIyWlLk6GJQsqaUBKTNV-1">
          <mxGeometry x="330" y="440" width="100" height="30" as="geometry" />
        </mxCell>
        <mxCell id="0QIRVl-zUDsyCPvj4wfi-83" style="edgeStyle=orthogonalEdgeStyle;rounded=0;orthogonalLoop=1;jettySize=auto;html=1;exitX=0;exitY=0.25;exitDx=0;exitDy=0;entryX=0;entryY=0.75;entryDx=0;entryDy=0;fontSize=10;" edge="1" parent="WIyWlLk6GJQsqaUBKTNV-1" source="0QIRVl-zUDsyCPvj4wfi-76" target="0QIRVl-zUDsyCPvj4wfi-77">
          <mxGeometry relative="1" as="geometry" />
        </mxCell>
        <mxCell id="0QIRVl-zUDsyCPvj4wfi-76" value="1 View All Course" style="whiteSpace=wrap;html=1;fontSize=10;align=left;" vertex="1" parent="WIyWlLk6GJQsqaUBKTNV-1">
          <mxGeometry x="330" y="490" width="100" height="30" as="geometry" />
        </mxCell>
        <mxCell id="0QIRVl-zUDsyCPvj4wfi-84" style="edgeStyle=orthogonalEdgeStyle;rounded=0;orthogonalLoop=1;jettySize=auto;html=1;exitX=0;exitY=0.25;exitDx=0;exitDy=0;entryX=0;entryY=0.75;entryDx=0;entryDy=0;fontSize=10;" edge="1" parent="WIyWlLk6GJQsqaUBKTNV-1" source="0QIRVl-zUDsyCPvj4wfi-77" target="0QIRVl-zUDsyCPvj4wfi-78">
          <mxGeometry relative="1" as="geometry" />
        </mxCell>
        <mxCell id="0QIRVl-zUDsyCPvj4wfi-77" value="2 View Available Course" style="whiteSpace=wrap;html=1;fontSize=10;align=left;" vertex="1" parent="WIyWlLk6GJQsqaUBKTNV-1">
          <mxGeometry x="330" y="540" width="120" height="30" as="geometry" />
        </mxCell>
        <mxCell id="0QIRVl-zUDsyCPvj4wfi-85" style="edgeStyle=orthogonalEdgeStyle;rounded=0;orthogonalLoop=1;jettySize=auto;html=1;exitX=0;exitY=0.25;exitDx=0;exitDy=0;entryX=0;entryY=0.75;entryDx=0;entryDy=0;fontSize=10;" edge="1" parent="WIyWlLk6GJQsqaUBKTNV-1" source="0QIRVl-zUDsyCPvj4wfi-78" target="0QIRVl-zUDsyCPvj4wfi-79">
          <mxGeometry relative="1" as="geometry" />
        </mxCell>
        <mxCell id="0QIRVl-zUDsyCPvj4wfi-78" value="3 Register a Course" style="whiteSpace=wrap;html=1;fontSize=10;align=left;" vertex="1" parent="WIyWlLk6GJQsqaUBKTNV-1">
          <mxGeometry x="330" y="590" width="100" height="30" as="geometry" />
        </mxCell>
        <mxCell id="0QIRVl-zUDsyCPvj4wfi-86" style="edgeStyle=orthogonalEdgeStyle;rounded=0;orthogonalLoop=1;jettySize=auto;html=1;exitX=0;exitY=0.25;exitDx=0;exitDy=0;entryX=0;entryY=0.75;entryDx=0;entryDy=0;fontSize=10;" edge="1" parent="WIyWlLk6GJQsqaUBKTNV-1" source="0QIRVl-zUDsyCPvj4wfi-79" target="0QIRVl-zUDsyCPvj4wfi-80">
          <mxGeometry relative="1" as="geometry" />
        </mxCell>
        <mxCell id="0QIRVl-zUDsyCPvj4wfi-79" value="4 Withdraw a Course" style="whiteSpace=wrap;html=1;fontSize=10;align=left;" vertex="1" parent="WIyWlLk6GJQsqaUBKTNV-1">
          <mxGeometry x="330" y="640" width="100" height="30" as="geometry" />
        </mxCell>
        <mxCell id="0QIRVl-zUDsyCPvj4wfi-87" style="edgeStyle=orthogonalEdgeStyle;rounded=0;orthogonalLoop=1;jettySize=auto;html=1;exitX=0;exitY=0.25;exitDx=0;exitDy=0;entryX=0;entryY=0.75;entryDx=0;entryDy=0;fontSize=10;" edge="1" parent="WIyWlLk6GJQsqaUBKTNV-1" source="0QIRVl-zUDsyCPvj4wfi-80" target="0QIRVl-zUDsyCPvj4wfi-81">
          <mxGeometry relative="1" as="geometry" />
        </mxCell>
        <mxCell id="0QIRVl-zUDsyCPvj4wfi-80" value="5 View All Registered" style="whiteSpace=wrap;html=1;fontSize=10;align=left;" vertex="1" parent="WIyWlLk6GJQsqaUBKTNV-1">
          <mxGeometry x="330" y="690" width="100" height="30" as="geometry" />
        </mxCell>
        <mxCell id="0QIRVl-zUDsyCPvj4wfi-90" style="edgeStyle=orthogonalEdgeStyle;rounded=0;orthogonalLoop=1;jettySize=auto;html=1;exitX=0.25;exitY=1;exitDx=0;exitDy=0;entryX=0.5;entryY=1;entryDx=0;entryDy=0;fontSize=10;" edge="1" parent="WIyWlLk6GJQsqaUBKTNV-1" source="0QIRVl-zUDsyCPvj4wfi-81" target="0QIRVl-zUDsyCPvj4wfi-5">
          <mxGeometry relative="1" as="geometry" />
        </mxCell>
        <mxCell id="0QIRVl-zUDsyCPvj4wfi-81" value="6 Exit" style="whiteSpace=wrap;html=1;fontSize=10;align=left;" vertex="1" parent="WIyWlLk6GJQsqaUBKTNV-1">
          <mxGeometry x="330" y="740" width="100" height="30" as="geometry" />
        </mxCell>
      </root>
    </mxGraphModel>
  </diagram>
</mxfile>
